<svg width="26" height="26" viewBox="0 0 26 26" fill="none" xmlns="http://www.w3.org/2000/svg">
<path fill-rule="evenodd" clip-rule="evenodd" d="M12.335 1.31145C12.7262 1.00718 13.274 1.00718 13.6652 1.31145L23.4152 8.89479C23.6791 9.10003 23.8334 9.41561 23.8334 9.74992V21.6666C23.8334 22.5285 23.491 23.3552 22.8815 23.9647C22.272 24.5742 21.4454 24.9166 20.5834 24.9166H5.41675C4.55479 24.9166 3.72814 24.5742 3.11865 23.9647C2.50916 23.3552 2.16675 22.5285 2.16675 21.6666V9.74992C2.16675 9.41561 2.32109 9.10003 2.58498 8.89479L12.335 1.31145ZM4.33341 10.2798V21.6666C4.33341 21.9539 4.44755 22.2295 4.65072 22.4326C4.85388 22.6358 5.12943 22.7499 5.41675 22.7499H20.5834C20.8707 22.7499 21.1463 22.6358 21.3494 22.4326C21.5526 22.2295 21.6667 21.9539 21.6667 21.6666V10.2798L13.0001 3.53902L4.33341 10.2798Z" fill="white"/>
<path fill-rule="evenodd" clip-rule="evenodd" d="M8.66675 13.0001C8.66675 12.4018 9.15177 11.9167 9.75008 11.9167H16.2501C16.8484 11.9167 17.3334 12.4018 17.3334 13.0001V23.8334C17.3334 24.4317 16.8484 24.9167 16.2501 24.9167C15.6518 24.9167 15.1667 24.4317 15.1667 23.8334V14.0834H10.8334V23.8334C10.8334 24.4317 10.3484 24.9167 9.75008 24.9167C9.15177 24.9167 8.66675 24.4317 8.66675 23.8334V13.0001Z" fill="white"/>
</svg>
