<svg width="245" height="245" viewBox="0 0 245 245" fill="none" xmlns="http://www.w3.org/2000/svg">
<path fill-rule="evenodd" clip-rule="evenodd" d="M57.4963 40.4289H150.896C152.085 40.4289 153.244 40.7952 154.215 41.4807C179.375 59.1395 191.955 76.9445 191.955 94.8958C191.955 112.087 180.417 129.314 157.342 146.576C154.803 148.48 154.273 152.075 156.157 154.63L186.259 195.487C188.152 198.057 187.604 201.675 185.034 203.568C184.041 204.3 182.84 204.694 181.606 204.694H161.592H57.4963C55.3685 204.694 53.6436 202.969 53.6436 200.842V44.2817C53.6436 42.1538 55.3685 40.4289 57.4963 40.4289Z" fill="url(#paint0_linear_8_776)" stroke="url(#paint1_linear_8_776)" stroke-width="14.4"/>
<path d="M190.166 218C198.958 218 206.086 210.874 206.086 202.083C206.086 193.293 198.958 186.167 190.166 186.167C181.373 186.167 174.245 193.293 174.245 202.083C174.245 210.874 181.373 218 190.166 218Z" fill="white"/>
<path d="M191.08 112.621C199.872 112.621 207 105.495 207 96.704C207 87.9135 199.872 80.7874 191.08 80.7874C182.287 80.7874 175.159 87.9135 175.159 96.704C175.159 105.495 182.287 112.621 191.08 112.621Z" fill="white"/>
<path d="M153.484 165.122C162.277 165.122 169.404 157.996 169.404 149.205C169.404 140.415 162.277 133.289 153.484 133.289C144.691 133.289 137.563 140.415 137.563 149.205C137.563 157.996 144.691 165.122 153.484 165.122Z" fill="white"/>
<path d="M153.484 58.8333C162.277 58.8333 169.404 51.7072 169.404 42.9167C169.404 34.1261 162.277 27 153.484 27C144.691 27 137.563 34.1261 137.563 42.9167C137.563 51.7072 144.691 58.8333 153.484 58.8333Z" fill="white"/>
<path d="M52.9204 218C61.7131 218 68.8409 210.874 68.8409 202.083C68.8409 193.293 61.7131 186.167 52.9204 186.167C44.1278 186.167 37 193.293 37 202.083C37 210.874 44.1278 218 52.9204 218Z" fill="white"/>
<path d="M52.9946 58.9856C61.8282 58.9856 68.9892 51.8254 68.9892 42.9928C68.9892 34.1602 61.8282 27 52.9946 27C44.161 27 37 34.1602 37 42.9928C37 51.8254 44.161 58.9856 52.9946 58.9856Z" fill="white"/>
<defs>
<linearGradient id="paint0_linear_8_776" x1="7.59151" y1="137.002" x2="166.615" y2="137.002" gradientUnits="userSpaceOnUse">
<stop stop-color="#CAC0FF" stop-opacity="0"/>
<stop offset="1" stop-color="white"/>
</linearGradient>
<linearGradient id="paint1_linear_8_776" x1="175.302" y1="53.9985" x2="87.1536" y2="210.534" gradientUnits="userSpaceOnUse">
<stop stop-color="#5272FF"/>
<stop offset="0.510617" stop-color="#FF8095"/>
<stop offset="1" stop-color="#FFC16E"/>
</linearGradient>
</defs>
</svg>
