<svg width="20" height="20" viewBox="0 0 20 20" fill="none" xmlns="http://www.w3.org/2000/svg">
<path fill-rule="evenodd" clip-rule="evenodd" d="M11.6666 2.50008C11.6666 2.03984 12.0397 1.66675 12.5 1.66675H17.5C17.9602 1.66675 18.3333 2.03984 18.3333 2.50008V7.50008C18.3333 7.96032 17.9602 8.33341 17.5 8.33341C17.0397 8.33341 16.6666 7.96032 16.6666 7.50008V3.33341H12.5C12.0397 3.33341 11.6666 2.96032 11.6666 2.50008Z" fill="#6E757D"/>
<path fill-rule="evenodd" clip-rule="evenodd" d="M2.49996 11.6667C2.9602 11.6667 3.33329 12.0398 3.33329 12.5001V16.6667H7.49996C7.9602 16.6667 8.33329 17.0398 8.33329 17.5001C8.33329 17.9603 7.9602 18.3334 7.49996 18.3334H2.49996C2.03972 18.3334 1.66663 17.9603 1.66663 17.5001V12.5001C1.66663 12.0398 2.03972 11.6667 2.49996 11.6667Z" fill="#6E757D"/>
<path fill-rule="evenodd" clip-rule="evenodd" d="M18.0893 1.91083C18.4147 2.23626 18.4147 2.7639 18.0893 3.08934L12.256 8.92267C11.9305 9.24811 11.4029 9.24811 11.0775 8.92267C10.752 8.59723 10.752 8.0696 11.0775 7.74416L16.9108 1.91083C17.2362 1.58539 17.7639 1.58539 18.0893 1.91083Z" fill="#6E757D"/>
<path fill-rule="evenodd" clip-rule="evenodd" d="M8.92255 11.0773C9.24799 11.4028 9.24799 11.9304 8.92255 12.2558L3.08921 18.0892C2.76378 18.4146 2.23614 18.4146 1.9107 18.0892C1.58527 17.7637 1.58527 17.2361 1.9107 16.9107L7.74404 11.0773C8.06947 10.7519 8.59711 10.7519 8.92255 11.0773Z" fill="#6E757D"/>
</svg>
