<svg width="26" height="26" viewBox="0 0 26 26" fill="none" xmlns="http://www.w3.org/2000/svg">
<path fill-rule="evenodd" clip-rule="evenodd" d="M13 3.24992C7.6152 3.24992 3.24998 7.61514 3.24998 12.9999C3.24998 18.3847 7.6152 22.7499 13 22.7499C18.3848 22.7499 22.75 18.3847 22.75 12.9999C22.75 7.61514 18.3848 3.24992 13 3.24992ZM1.08331 12.9999C1.08331 6.41852 6.41859 1.08325 13 1.08325C19.5814 1.08325 24.9166 6.41852 24.9166 12.9999C24.9166 19.5813 19.5814 24.9166 13 24.9166C6.41859 24.9166 1.08331 19.5813 1.08331 12.9999Z" fill="white"/>
<path fill-rule="evenodd" clip-rule="evenodd" d="M13 7.58325C13.5983 7.58325 14.0834 8.06828 14.0834 8.66659V17.3333C14.0834 17.9316 13.5983 18.4166 13 18.4166C12.4017 18.4166 11.9167 17.9316 11.9167 17.3333V8.66659C11.9167 8.06828 12.4017 7.58325 13 7.58325Z" fill="white"/>
<path fill-rule="evenodd" clip-rule="evenodd" d="M7.58331 13.0001C7.58331 12.4018 8.06834 11.9167 8.66665 11.9167H17.3333C17.9316 11.9167 18.4166 12.4018 18.4166 13.0001C18.4166 13.5984 17.9316 14.0834 17.3333 14.0834H8.66665C8.06834 14.0834 7.58331 13.5984 7.58331 13.0001Z" fill="white"/>
</svg>
