<svg width="16" height="20" viewBox="0 0 16 20" fill="none" xmlns="http://www.w3.org/2000/svg">
<path fill-rule="evenodd" clip-rule="evenodd" d="M1.23223 1.56548C1.70107 1.09664 2.33696 0.833252 3 0.833252H8.83333C9.05435 0.833252 9.26631 0.921049 9.42259 1.07733L15.2559 6.91066C15.4122 7.06694 15.5 7.2789 15.5 7.49992V16.6666C15.5 17.3296 15.2366 17.9655 14.7678 18.4344C14.2989 18.9032 13.663 19.1666 13 19.1666H3C2.33696 19.1666 1.70107 18.9032 1.23223 18.4344C0.763392 17.9655 0.5 17.3296 0.5 16.6666V3.33325C0.5 2.67021 0.763392 2.03433 1.23223 1.56548ZM3 2.49992C2.77899 2.49992 2.56702 2.58772 2.41074 2.744C2.25446 2.90028 2.16667 3.11224 2.16667 3.33325V16.6666C2.16667 16.8876 2.25446 17.0996 2.41074 17.2558C2.56702 17.4121 2.77899 17.4999 3 17.4999H13C13.221 17.4999 13.433 17.4121 13.5893 17.2558C13.7455 17.0996 13.8333 16.8876 13.8333 16.6666V7.8451L8.48816 2.49992H3Z" fill="#171F29"/>
<path fill-rule="evenodd" clip-rule="evenodd" d="M8.83333 0.833252C9.29357 0.833252 9.66667 1.20635 9.66667 1.66659V6.66658H14.6667C15.1269 6.66658 15.5 7.03968 15.5 7.49992C15.5 7.96016 15.1269 8.33325 14.6667 8.33325H8.83333C8.3731 8.33325 8 7.96016 8 7.49992V1.66659C8 1.20635 8.3731 0.833252 8.83333 0.833252Z" fill="#171F29"/>
</svg>
